<?xml version="1.0" encoding="UTF-8" standalone="no"?>
<!DOCTYPE svg PUBLIC "-//W3C//DTD SVG 1.1//EN" "http://www.w3.org/Graphics/SVG/1.1/DTD/svg11.dtd">
<svg width="100%" height="100%" viewBox="0 0 726 35" version="1.1" xmlns="http://www.w3.org/2000/svg" xmlns:xlink="http://www.w3.org/1999/xlink" xml:space="preserve" xmlns:serif="http://www.serif.com/" style="fill-rule:evenodd;clip-rule:evenodd;stroke-linejoin:round;stroke-miterlimit:2;">
    <g transform="matrix(1,0,0,1,-275.807,-2016.17)">
        <g id="THE-BIG-FIGHT-FOR-SMALL-BUSINESS" serif:id="THE BIG FIGHT FOR SMALL BUSINESS" transform="matrix(1,0,0,1,638.543,2050.25)">
            <g transform="matrix(48,0,0,48,-363.696,0)">
                <path d="M0.126,-0.022C0.126,-0.006 0.132,0 0.148,0L0.276,0C0.292,0 0.298,-0.006 0.298,-0.022L0.298,-0.483C0.298,-0.499 0.304,-0.505 0.32,-0.505L0.382,-0.505C0.398,-0.505 0.404,-0.511 0.404,-0.527L0.404,-0.678C0.404,-0.694 0.398,-0.7 0.382,-0.7L0.042,-0.7C0.026,-0.7 0.02,-0.694 0.02,-0.678L0.02,-0.527C0.02,-0.511 0.026,-0.505 0.042,-0.505L0.104,-0.505C0.12,-0.505 0.126,-0.499 0.126,-0.483L0.126,-0.022Z" style="fill:rgb(37,38,62);fill-rule:nonzero;"/>
            </g>
            <g transform="matrix(48,0,0,48,-343.344,0)">
                <path d="M0.226,-0.677C0.226,-0.693 0.22,-0.7 0.204,-0.7L0.072,-0.7C0.056,-0.7 0.05,-0.693 0.05,-0.677L0.05,-0.023C0.05,-0.007 0.056,0 0.072,0L0.204,0C0.22,0 0.226,-0.007 0.226,-0.023L0.226,-0.234C0.226,-0.25 0.232,-0.257 0.248,-0.257L0.452,-0.257C0.468,-0.257 0.474,-0.25 0.474,-0.234L0.474,-0.023C0.474,-0.007 0.48,0 0.496,0L0.628,0C0.644,0 0.65,-0.007 0.65,-0.023L0.65,-0.677C0.65,-0.693 0.644,-0.7 0.628,-0.7L0.496,-0.7C0.48,-0.7 0.474,-0.693 0.474,-0.677L0.474,-0.471C0.474,-0.455 0.468,-0.448 0.452,-0.448L0.248,-0.448C0.232,-0.448 0.226,-0.455 0.226,-0.471L0.226,-0.677Z" style="fill:rgb(37,38,62);fill-rule:nonzero;"/>
            </g>
            <g transform="matrix(48,0,0,48,-309.744,0)">
                <path d="M0.461,-0.269C0.477,-0.269 0.483,-0.276 0.483,-0.292L0.483,-0.407C0.483,-0.423 0.477,-0.43 0.461,-0.43L0.244,-0.43C0.228,-0.43 0.222,-0.437 0.222,-0.453L0.222,-0.49C0.222,-0.506 0.228,-0.513 0.244,-0.513L0.511,-0.513C0.527,-0.513 0.533,-0.52 0.533,-0.536L0.533,-0.677C0.533,-0.693 0.527,-0.7 0.511,-0.7L0.072,-0.7C0.056,-0.7 0.05,-0.693 0.05,-0.677L0.05,-0.023C0.05,-0.007 0.056,0 0.072,0L0.511,0C0.527,0 0.533,-0.007 0.533,-0.023L0.533,-0.164C0.533,-0.18 0.527,-0.187 0.511,-0.187L0.244,-0.187C0.228,-0.187 0.222,-0.194 0.222,-0.21L0.222,-0.246C0.222,-0.262 0.228,-0.269 0.244,-0.269L0.461,-0.269Z" style="fill:rgb(37,38,62);fill-rule:nonzero;"/>
            </g>
            <g transform="matrix(48,0,0,48,-274.08,0)">
                <path d="M0.234,-0.425C0.218,-0.425 0.212,-0.432 0.212,-0.448L0.212,-0.496C0.212,-0.512 0.218,-0.519 0.234,-0.519L0.239,-0.519C0.265,-0.519 0.285,-0.502 0.285,-0.472C0.285,-0.441 0.265,-0.425 0.239,-0.425L0.234,-0.425ZM0.234,-0.181C0.218,-0.181 0.212,-0.193 0.212,-0.209L0.212,-0.252C0.212,-0.268 0.218,-0.275 0.234,-0.275L0.24,-0.275C0.266,-0.275 0.286,-0.258 0.286,-0.228C0.286,-0.197 0.266,-0.181 0.24,-0.181L0.234,-0.181ZM0.072,-0.7C0.056,-0.7 0.05,-0.694 0.05,-0.678L0.05,-0.022C0.05,-0.006 0.056,0 0.072,0L0.241,0C0.379,0 0.456,-0.074 0.456,-0.22C0.456,-0.267 0.447,-0.304 0.427,-0.335C0.425,-0.338 0.423,-0.343 0.423,-0.347C0.423,-0.351 0.425,-0.356 0.427,-0.36C0.443,-0.393 0.456,-0.432 0.456,-0.481C0.456,-0.629 0.364,-0.7 0.215,-0.7L0.072,-0.7Z" style="fill:rgb(37,38,62);fill-rule:nonzero;"/>
            </g>
            <g transform="matrix(48,0,0,48,-250.464,0)">
                <path d="M0.238,-0.677C0.238,-0.693 0.232,-0.7 0.216,-0.7L0.072,-0.7C0.056,-0.7 0.05,-0.693 0.05,-0.677L0.05,-0.023C0.05,-0.007 0.056,0 0.072,0L0.216,0C0.232,0 0.238,-0.007 0.238,-0.023L0.238,-0.677Z" style="fill:rgb(37,38,62);fill-rule:nonzero;"/>
            </g>
            <g transform="matrix(48,0,0,48,-236.64,0)">
                <path d="M0.65,0C0.666,0 0.672,-0.007 0.672,-0.023L0.672,-0.347C0.672,-0.363 0.666,-0.37 0.65,-0.37L0.522,-0.37C0.506,-0.37 0.5,-0.363 0.5,-0.347L0.5,-0.237C0.5,-0.215 0.498,-0.208 0.483,-0.198C0.453,-0.178 0.416,-0.169 0.369,-0.169C0.263,-0.169 0.195,-0.247 0.195,-0.35C0.195,-0.445 0.265,-0.52 0.362,-0.52C0.427,-0.52 0.474,-0.493 0.51,-0.441C0.52,-0.426 0.53,-0.427 0.545,-0.434L0.659,-0.488C0.679,-0.498 0.676,-0.514 0.666,-0.534C0.613,-0.645 0.494,-0.71 0.361,-0.71C0.159,-0.71 0.012,-0.559 0.012,-0.35C0.012,-0.141 0.16,0.01 0.362,0.01C0.423,0.01 0.461,-0.002 0.486,-0.013C0.505,-0.021 0.519,-0.031 0.532,-0.011C0.539,0 0.548,0 0.565,0L0.65,0Z" style="fill:rgb(37,38,62);fill-rule:nonzero;"/>
            </g>
            <g transform="matrix(48,0,0,48,-194.352,0)">
                <path d="M0.226,-0.233C0.226,-0.249 0.232,-0.256 0.248,-0.256L0.471,-0.256C0.487,-0.256 0.493,-0.263 0.493,-0.279L0.493,-0.401C0.493,-0.417 0.487,-0.424 0.471,-0.424L0.248,-0.424C0.232,-0.424 0.226,-0.431 0.226,-0.447L0.226,-0.49C0.226,-0.507 0.232,-0.513 0.248,-0.513L0.511,-0.513C0.527,-0.513 0.533,-0.519 0.533,-0.536L0.533,-0.677C0.533,-0.693 0.527,-0.7 0.511,-0.7L0.072,-0.7C0.056,-0.7 0.05,-0.693 0.05,-0.677L0.05,-0.023C0.05,-0.007 0.056,0 0.072,0L0.204,0C0.22,0 0.226,-0.007 0.226,-0.023L0.226,-0.233Z" style="fill:rgb(37,38,62);fill-rule:nonzero;"/>
            </g>
            <g transform="matrix(48,0,0,48,-167.712,0)">
                <path d="M0.238,-0.678C0.238,-0.694 0.232,-0.7 0.216,-0.7L0.072,-0.7C0.056,-0.7 0.05,-0.694 0.05,-0.678L0.05,-0.022C0.05,-0.006 0.056,0 0.072,0L0.216,0C0.232,0 0.238,-0.006 0.238,-0.022L0.238,-0.678Z" style="fill:rgb(37,38,62);fill-rule:nonzero;"/>
            </g>
            <g transform="matrix(48,0,0,48,-153.888,0)">
                <path d="M0.249,-0.185C0.233,-0.185 0.223,-0.198 0.218,-0.222C0.213,-0.247 0.209,-0.286 0.209,-0.35C0.209,-0.414 0.213,-0.453 0.218,-0.478C0.223,-0.502 0.233,-0.515 0.249,-0.515C0.267,-0.515 0.279,-0.5 0.279,-0.454L0.279,-0.43C0.279,-0.414 0.285,-0.407 0.301,-0.407L0.428,-0.407C0.445,-0.407 0.451,-0.412 0.451,-0.445C0.451,-0.573 0.417,-0.71 0.245,-0.71C0.1,-0.71 0.03,-0.625 0.03,-0.35C0.03,-0.085 0.102,0.01 0.225,0.01C0.265,0.01 0.289,-0.004 0.303,-0.014C0.31,-0.019 0.315,-0.024 0.322,-0.024C0.328,-0.024 0.332,-0.018 0.336,-0.012C0.343,-0.002 0.351,0 0.366,0L0.432,0C0.448,0 0.454,-0.007 0.454,-0.023L0.454,-0.307C0.454,-0.323 0.448,-0.33 0.432,-0.33L0.304,-0.33C0.288,-0.33 0.282,-0.323 0.282,-0.307L0.282,-0.258C0.282,-0.208 0.27,-0.185 0.249,-0.185Z" style="fill:rgb(37,38,62);fill-rule:nonzero;"/>
            </g>
            <g transform="matrix(48,0,0,48,-130.176,0)">
                <path d="M0.289,-0.023C0.289,-0.007 0.295,0 0.311,0L0.443,0C0.459,0 0.465,-0.007 0.465,-0.023L0.465,-0.677C0.465,-0.693 0.459,-0.7 0.443,-0.7L0.311,-0.7C0.295,-0.7 0.289,-0.693 0.289,-0.677L0.289,-0.473C0.289,-0.457 0.283,-0.45 0.267,-0.45L0.248,-0.45C0.232,-0.45 0.226,-0.457 0.226,-0.473L0.226,-0.677C0.226,-0.693 0.22,-0.7 0.204,-0.7L0.072,-0.7C0.056,-0.7 0.05,-0.693 0.05,-0.677L0.05,-0.023C0.05,-0.007 0.056,0 0.072,0L0.204,0C0.22,0 0.226,-0.007 0.226,-0.023L0.226,-0.232C0.226,-0.248 0.232,-0.255 0.248,-0.255L0.267,-0.255C0.283,-0.255 0.289,-0.248 0.289,-0.232L0.289,-0.023Z" style="fill:rgb(37,38,62);fill-rule:nonzero;"/>
            </g>
            <g transform="matrix(48,0,0,48,-105.456,0)">
                <path d="M0.194,-0.512C0.21,-0.512 0.216,-0.505 0.216,-0.489L0.216,-0.023C0.216,-0.007 0.222,0 0.238,0L0.37,0C0.386,0 0.392,-0.007 0.392,-0.023L0.392,-0.489C0.392,-0.505 0.398,-0.512 0.414,-0.512L0.579,-0.512C0.595,-0.512 0.601,-0.519 0.601,-0.535L0.601,-0.677C0.601,-0.693 0.595,-0.7 0.579,-0.7L0.029,-0.7C0.013,-0.7 0.007,-0.693 0.007,-0.677L0.007,-0.535C0.007,-0.519 0.013,-0.512 0.029,-0.512L0.194,-0.512Z" style="fill:rgb(37,38,62);fill-rule:nonzero;"/>
            </g>
            <g transform="matrix(48,0,0,48,-68.112,0)">
                <path d="M0.306,-0.261C0.322,-0.261 0.328,-0.268 0.328,-0.284L0.328,-0.416C0.328,-0.432 0.322,-0.439 0.306,-0.439L0.247,-0.439C0.231,-0.439 0.225,-0.445 0.225,-0.461L0.225,-0.478C0.225,-0.494 0.231,-0.5 0.247,-0.5L0.321,-0.5C0.337,-0.5 0.343,-0.507 0.343,-0.523L0.343,-0.677C0.343,-0.693 0.337,-0.7 0.321,-0.7L0.072,-0.7C0.056,-0.7 0.05,-0.693 0.05,-0.677L0.05,-0.023C0.05,-0.007 0.056,0 0.072,0L0.203,0C0.219,0 0.225,-0.007 0.225,-0.023L0.225,-0.239C0.225,-0.255 0.231,-0.261 0.247,-0.261L0.306,-0.261Z" style="fill:rgb(37,38,62);fill-rule:nonzero;"/>
            </g>
            <g transform="matrix(48,0,0,48,-50.208,0)">
                <path d="M0.245,-0.71C0.098,-0.71 0.03,-0.625 0.03,-0.35C0.03,-0.075 0.098,0.01 0.245,0.01C0.392,0.01 0.46,-0.075 0.46,-0.35C0.46,-0.625 0.392,-0.71 0.245,-0.71ZM0.245,-0.191C0.218,-0.191 0.207,-0.213 0.207,-0.35C0.207,-0.487 0.218,-0.509 0.245,-0.509C0.272,-0.509 0.283,-0.487 0.283,-0.35C0.283,-0.213 0.272,-0.191 0.245,-0.191Z" style="fill:rgb(37,38,62);fill-rule:nonzero;"/>
            </g>
            <g transform="matrix(48,0,0,48,-26.688,0)">
                <path d="M0.223,-0.233C0.223,-0.251 0.239,-0.254 0.249,-0.241L0.423,-0.021C0.438,-0.002 0.448,0 0.466,0L0.627,0C0.647,0 0.652,-0.02 0.641,-0.034L0.45,-0.267C0.441,-0.278 0.441,-0.288 0.45,-0.297C0.501,-0.345 0.528,-0.399 0.528,-0.477C0.528,-0.612 0.453,-0.7 0.29,-0.7L0.072,-0.7C0.056,-0.7 0.05,-0.693 0.05,-0.677L0.05,-0.023C0.05,-0.007 0.056,0 0.072,0L0.201,0C0.217,0 0.223,-0.007 0.223,-0.023L0.223,-0.233ZM0.234,-0.425C0.218,-0.425 0.212,-0.432 0.212,-0.448L0.212,-0.496C0.212,-0.512 0.218,-0.519 0.234,-0.519L0.311,-0.519C0.337,-0.519 0.357,-0.502 0.357,-0.472C0.357,-0.441 0.337,-0.425 0.311,-0.425L0.234,-0.425Z" style="fill:rgb(37,38,62);fill-rule:nonzero;"/>
            </g>
            <g transform="matrix(48,0,0,48,11.376,0)">
                <path d="M0.61,-0.236C0.61,-0.38 0.491,-0.44 0.337,-0.44L0.301,-0.44C0.234,-0.44 0.217,-0.458 0.217,-0.482C0.217,-0.509 0.251,-0.53 0.315,-0.53C0.368,-0.53 0.424,-0.513 0.466,-0.479C0.48,-0.468 0.49,-0.468 0.501,-0.479L0.593,-0.578C0.609,-0.596 0.597,-0.608 0.583,-0.619C0.515,-0.673 0.428,-0.71 0.328,-0.71C0.163,-0.71 0.038,-0.62 0.038,-0.467C0.038,-0.311 0.164,-0.26 0.32,-0.26L0.349,-0.26C0.41,-0.26 0.431,-0.247 0.431,-0.219C0.431,-0.191 0.399,-0.17 0.337,-0.17C0.266,-0.17 0.203,-0.2 0.166,-0.236C0.153,-0.249 0.145,-0.249 0.132,-0.237L0.031,-0.141C0.019,-0.129 0.023,-0.117 0.034,-0.106C0.104,-0.035 0.203,0.01 0.326,0.01C0.482,0.01 0.61,-0.076 0.61,-0.236Z" style="fill:rgb(37,38,62);fill-rule:nonzero;"/>
            </g>
            <g transform="matrix(48,0,0,48,41.856,0)">
                <path d="M0.319,-0.198C0.326,-0.198 0.331,-0.201 0.335,-0.208L0.392,-0.304C0.397,-0.312 0.4,-0.313 0.404,-0.313C0.41,-0.313 0.414,-0.307 0.414,-0.299L0.414,-0.023C0.414,-0.007 0.42,0 0.436,0L0.564,0C0.58,0 0.586,-0.007 0.586,-0.023L0.586,-0.677C0.586,-0.693 0.58,-0.7 0.564,-0.7L0.483,-0.7C0.46,-0.7 0.453,-0.694 0.44,-0.673L0.334,-0.503C0.329,-0.495 0.325,-0.489 0.318,-0.489C0.311,-0.489 0.307,-0.495 0.302,-0.503L0.196,-0.673C0.183,-0.694 0.176,-0.7 0.153,-0.7L0.072,-0.7C0.056,-0.7 0.05,-0.693 0.05,-0.677L0.05,-0.023C0.05,-0.007 0.056,0 0.072,0L0.2,0C0.216,0 0.222,-0.007 0.222,-0.023L0.222,-0.299C0.222,-0.307 0.226,-0.313 0.232,-0.313C0.236,-0.313 0.24,-0.311 0.244,-0.304L0.301,-0.208C0.305,-0.201 0.311,-0.198 0.319,-0.198Z" style="fill:rgb(37,38,62);fill-rule:nonzero;"/>
            </g>
            <g transform="matrix(48,0,0,48,72.384,0)">
                <path d="M0.251,-0.372C0.254,-0.385 0.257,-0.393 0.265,-0.393C0.273,-0.393 0.277,-0.385 0.28,-0.372L0.298,-0.293C0.3,-0.285 0.301,-0.278 0.301,-0.274C0.301,-0.267 0.295,-0.263 0.284,-0.263L0.247,-0.263C0.236,-0.263 0.229,-0.266 0.229,-0.274C0.229,-0.278 0.23,-0.285 0.232,-0.293L0.251,-0.372ZM0.207,-0.088C0.211,-0.106 0.219,-0.11 0.235,-0.11L0.295,-0.11C0.311,-0.11 0.318,-0.106 0.323,-0.088L0.338,-0.027C0.344,-0.003 0.352,0 0.379,0L0.503,0C0.516,0 0.521,-0.006 0.521,-0.016C0.521,-0.02 0.52,-0.023 0.519,-0.028L0.354,-0.677C0.349,-0.695 0.341,-0.7 0.325,-0.7L0.206,-0.7C0.19,-0.7 0.182,-0.695 0.177,-0.677L0.012,-0.028C0.011,-0.023 0.01,-0.02 0.01,-0.016C0.01,-0.006 0.015,0 0.028,0L0.151,0C0.178,0 0.186,-0.003 0.192,-0.027L0.207,-0.088Z" style="fill:rgb(37,38,62);fill-rule:nonzero;"/>
            </g>
            <g transform="matrix(48,0,0,48,97.872,0)">
                <path d="M0.254,-0.209C0.238,-0.209 0.232,-0.215 0.232,-0.231L0.232,-0.678C0.232,-0.694 0.226,-0.7 0.21,-0.7L0.072,-0.7C0.056,-0.7 0.05,-0.694 0.05,-0.678L0.05,-0.022C0.05,-0.006 0.056,0 0.072,0L0.331,0C0.347,0 0.353,-0.006 0.353,-0.022L0.353,-0.187C0.353,-0.203 0.347,-0.209 0.331,-0.209L0.254,-0.209Z" style="fill:rgb(37,38,62);fill-rule:nonzero;"/>
            </g>
            <g transform="matrix(48,0,0,48,116.256,0)">
                <path d="M0.232,-0.677C0.232,-0.693 0.226,-0.7 0.21,-0.7L0.072,-0.7C0.056,-0.7 0.05,-0.693 0.05,-0.677L0.05,-0.023C0.05,-0.007 0.056,0 0.072,0L0.511,0C0.527,0 0.533,-0.007 0.533,-0.023L0.533,-0.165C0.533,-0.181 0.527,-0.188 0.511,-0.188L0.254,-0.188C0.238,-0.188 0.232,-0.195 0.232,-0.211L0.232,-0.677Z" style="fill:rgb(37,38,62);fill-rule:nonzero;"/>
            </g>
            <g transform="matrix(48,0,0,48,151.056,0)">
                <path d="M0.072,-0.7C0.056,-0.7 0.05,-0.693 0.05,-0.677L0.05,-0.023C0.05,-0.007 0.056,0 0.072,0L0.371,0C0.527,0 0.603,-0.089 0.603,-0.212C0.603,-0.3 0.573,-0.362 0.506,-0.4C0.495,-0.406 0.492,-0.411 0.492,-0.419C0.492,-0.423 0.493,-0.427 0.494,-0.433C0.497,-0.448 0.501,-0.472 0.501,-0.488C0.501,-0.614 0.426,-0.7 0.285,-0.7L0.072,-0.7ZM0.234,-0.425C0.218,-0.425 0.212,-0.432 0.212,-0.448L0.212,-0.496C0.212,-0.512 0.218,-0.519 0.234,-0.519L0.285,-0.519C0.311,-0.519 0.331,-0.502 0.331,-0.472C0.331,-0.441 0.311,-0.425 0.285,-0.425L0.234,-0.425ZM0.234,-0.181C0.218,-0.181 0.212,-0.188 0.212,-0.204L0.212,-0.252C0.212,-0.268 0.218,-0.275 0.234,-0.275L0.368,-0.275C0.407,-0.275 0.429,-0.26 0.429,-0.228C0.429,-0.195 0.407,-0.181 0.368,-0.181L0.234,-0.181Z" style="fill:rgb(37,38,62);fill-rule:nonzero;"/>
            </g>
            <g transform="matrix(48,0,0,48,180.816,0)">
                <path d="M0.339,0.01C0.533,0.01 0.637,-0.091 0.637,-0.304L0.637,-0.677C0.636,-0.693 0.63,-0.7 0.614,-0.7L0.482,-0.7C0.466,-0.7 0.46,-0.693 0.46,-0.677L0.46,-0.323C0.46,-0.225 0.415,-0.182 0.34,-0.182C0.264,-0.182 0.219,-0.225 0.219,-0.323L0.219,-0.677C0.219,-0.693 0.214,-0.7 0.198,-0.7L0.064,-0.7C0.048,-0.7 0.042,-0.693 0.042,-0.677L0.042,-0.304C0.042,-0.091 0.145,0.01 0.339,0.01Z" style="fill:rgb(37,38,62);fill-rule:nonzero;"/>
            </g>
            <g transform="matrix(48,0,0,48,213.408,0)">
                <path d="M0.03,-0.215C0.03,-0.068 0.104,0.01 0.242,0.01C0.37,0.01 0.46,-0.068 0.46,-0.217C0.46,-0.354 0.379,-0.424 0.257,-0.436C0.217,-0.44 0.199,-0.452 0.199,-0.482C0.199,-0.506 0.217,-0.522 0.241,-0.522C0.265,-0.522 0.283,-0.507 0.283,-0.477C0.283,-0.461 0.289,-0.454 0.305,-0.454L0.427,-0.454C0.442,-0.454 0.452,-0.459 0.452,-0.486C0.452,-0.627 0.368,-0.71 0.24,-0.71C0.112,-0.71 0.03,-0.632 0.03,-0.483C0.03,-0.336 0.104,-0.278 0.241,-0.262C0.266,-0.259 0.283,-0.247 0.283,-0.217C0.283,-0.193 0.265,-0.177 0.241,-0.177C0.217,-0.177 0.2,-0.19 0.2,-0.225C0.2,-0.241 0.194,-0.248 0.178,-0.248L0.056,-0.248C0.041,-0.248 0.03,-0.244 0.03,-0.215Z" style="fill:rgb(37,38,62);fill-rule:nonzero;"/>
            </g>
            <g transform="matrix(48,0,0,48,236.544,0)">
                <path d="M0.238,-0.677C0.238,-0.693 0.232,-0.7 0.216,-0.7L0.072,-0.7C0.056,-0.7 0.05,-0.693 0.05,-0.677L0.05,-0.023C0.05,-0.007 0.056,0 0.072,0L0.216,0C0.232,0 0.238,-0.007 0.238,-0.023L0.238,-0.677Z" style="fill:rgb(37,38,62);fill-rule:nonzero;"/>
            </g>
            <g transform="matrix(48,0,0,48,250.368,0)">
                <path d="M0.321,-0.027C0.331,-0.004 0.341,0 0.364,0L0.446,0C0.462,0 0.468,-0.007 0.468,-0.023L0.468,-0.677C0.468,-0.693 0.462,-0.7 0.446,-0.7L0.318,-0.7C0.302,-0.7 0.296,-0.693 0.296,-0.677L0.296,-0.476C0.296,-0.467 0.292,-0.462 0.285,-0.462C0.279,-0.462 0.275,-0.467 0.271,-0.479L0.197,-0.673C0.188,-0.696 0.177,-0.7 0.154,-0.7L0.072,-0.7C0.056,-0.7 0.05,-0.693 0.05,-0.677L0.05,-0.023C0.05,-0.007 0.056,0 0.072,0L0.2,0C0.216,0 0.222,-0.007 0.222,-0.023L0.222,-0.224C0.222,-0.233 0.226,-0.238 0.233,-0.238C0.239,-0.238 0.243,-0.233 0.247,-0.221L0.321,-0.027Z" style="fill:rgb(37,38,62);fill-rule:nonzero;"/>
            </g>
            <g transform="matrix(48,0,0,48,275.232,0)">
                <path d="M0.461,-0.269C0.477,-0.269 0.483,-0.276 0.483,-0.292L0.483,-0.407C0.483,-0.423 0.477,-0.43 0.461,-0.43L0.244,-0.43C0.228,-0.43 0.222,-0.437 0.222,-0.453L0.222,-0.49C0.222,-0.506 0.228,-0.513 0.244,-0.513L0.511,-0.513C0.527,-0.513 0.533,-0.52 0.533,-0.536L0.533,-0.677C0.533,-0.693 0.527,-0.7 0.511,-0.7L0.072,-0.7C0.056,-0.7 0.05,-0.693 0.05,-0.677L0.05,-0.023C0.05,-0.007 0.056,0 0.072,0L0.511,0C0.527,0 0.533,-0.007 0.533,-0.023L0.533,-0.164C0.533,-0.18 0.527,-0.187 0.511,-0.187L0.244,-0.187C0.228,-0.187 0.222,-0.194 0.222,-0.21L0.222,-0.246C0.222,-0.262 0.228,-0.269 0.244,-0.269L0.461,-0.269Z" style="fill:rgb(37,38,62);fill-rule:nonzero;"/>
            </g>
            <g transform="matrix(48,0,0,48,302.736,0)">
                <path d="M0.61,-0.236C0.61,-0.38 0.491,-0.44 0.337,-0.44L0.301,-0.44C0.234,-0.44 0.217,-0.458 0.217,-0.482C0.217,-0.509 0.251,-0.53 0.315,-0.53C0.368,-0.53 0.424,-0.513 0.466,-0.479C0.48,-0.468 0.49,-0.468 0.501,-0.479L0.593,-0.578C0.609,-0.596 0.597,-0.608 0.583,-0.619C0.515,-0.673 0.428,-0.71 0.328,-0.71C0.163,-0.71 0.038,-0.62 0.038,-0.467C0.038,-0.311 0.164,-0.26 0.32,-0.26L0.349,-0.26C0.41,-0.26 0.431,-0.247 0.431,-0.219C0.431,-0.191 0.399,-0.17 0.337,-0.17C0.266,-0.17 0.203,-0.2 0.166,-0.236C0.153,-0.249 0.145,-0.249 0.132,-0.237L0.031,-0.141C0.019,-0.129 0.023,-0.117 0.034,-0.106C0.104,-0.035 0.203,0.01 0.326,0.01C0.482,0.01 0.61,-0.076 0.61,-0.236Z" style="fill:rgb(37,38,62);fill-rule:nonzero;"/>
            </g>
            <g transform="matrix(48,0,0,48,333.216,0)">
                <path d="M0.61,-0.236C0.61,-0.38 0.491,-0.44 0.337,-0.44L0.301,-0.44C0.234,-0.44 0.217,-0.458 0.217,-0.482C0.217,-0.509 0.251,-0.53 0.315,-0.53C0.368,-0.53 0.424,-0.513 0.466,-0.479C0.48,-0.468 0.49,-0.468 0.501,-0.479L0.593,-0.578C0.609,-0.596 0.597,-0.608 0.583,-0.619C0.515,-0.673 0.428,-0.71 0.328,-0.71C0.163,-0.71 0.038,-0.62 0.038,-0.467C0.038,-0.311 0.164,-0.26 0.32,-0.26L0.349,-0.26C0.41,-0.26 0.431,-0.247 0.431,-0.219C0.431,-0.191 0.399,-0.17 0.337,-0.17C0.266,-0.17 0.203,-0.2 0.166,-0.236C0.153,-0.249 0.145,-0.249 0.132,-0.237L0.031,-0.141C0.019,-0.129 0.023,-0.117 0.034,-0.106C0.104,-0.035 0.203,0.01 0.326,0.01C0.482,0.01 0.61,-0.076 0.61,-0.236Z" style="fill:rgb(37,38,62);fill-rule:nonzero;"/>
            </g>
        </g>
    </g>
</svg>
