<?xml version="1.0" encoding="UTF-8" standalone="no"?>
<!DOCTYPE svg PUBLIC "-//W3C//DTD SVG 1.1//EN" "http://www.w3.org/Graphics/SVG/1.1/DTD/svg11.dtd">
<svg width="100%" height="100%" viewBox="0 0 364 34" version="1.1" xmlns="http://www.w3.org/2000/svg" xmlns:xlink="http://www.w3.org/1999/xlink" xml:space="preserve" xmlns:serif="http://www.serif.com/" style="fill-rule:evenodd;clip-rule:evenodd;stroke-linejoin:round;stroke-miterlimit:2;">
    <g transform="matrix(1,0,0,1,-107.865,-906.852)">
        <g id="THE-SIZE-OF-SMALL" serif:id="THE SIZE OF SMALL" transform="matrix(1,0,0,1,107.543,939.512)">
            <g transform="matrix(46,0,0,46,0,0)">
                <path d="M0.194,-0.512C0.21,-0.512 0.216,-0.505 0.216,-0.489L0.216,-0.023C0.216,-0.007 0.222,0 0.238,0L0.37,0C0.386,0 0.392,-0.007 0.392,-0.023L0.392,-0.489C0.392,-0.505 0.398,-0.512 0.414,-0.512L0.579,-0.512C0.595,-0.512 0.601,-0.519 0.601,-0.535L0.601,-0.677C0.601,-0.693 0.595,-0.7 0.579,-0.7L0.029,-0.7C0.013,-0.7 0.007,-0.693 0.007,-0.677L0.007,-0.535C0.007,-0.519 0.013,-0.512 0.029,-0.512L0.194,-0.512Z" style="fill:white;fill-rule:nonzero;"/>
            </g>
            <g transform="matrix(46,0,0,46,27.968,0)">
                <path d="M0.289,-0.023C0.289,-0.007 0.295,0 0.311,0L0.443,0C0.459,0 0.465,-0.007 0.465,-0.023L0.465,-0.677C0.465,-0.693 0.459,-0.7 0.443,-0.7L0.311,-0.7C0.295,-0.7 0.289,-0.693 0.289,-0.677L0.289,-0.473C0.289,-0.457 0.283,-0.45 0.267,-0.45L0.248,-0.45C0.232,-0.45 0.226,-0.457 0.226,-0.473L0.226,-0.677C0.226,-0.693 0.22,-0.7 0.204,-0.7L0.072,-0.7C0.056,-0.7 0.05,-0.693 0.05,-0.677L0.05,-0.023C0.05,-0.007 0.056,0 0.072,0L0.204,0C0.22,0 0.226,-0.007 0.226,-0.023L0.226,-0.232C0.226,-0.248 0.232,-0.255 0.248,-0.255L0.267,-0.255C0.283,-0.255 0.289,-0.248 0.289,-0.232L0.289,-0.023Z" style="fill:white;fill-rule:nonzero;"/>
            </g>
            <g transform="matrix(46,0,0,46,51.658,0)">
                <path d="M0.461,-0.269C0.477,-0.269 0.483,-0.276 0.483,-0.292L0.483,-0.407C0.483,-0.423 0.477,-0.43 0.461,-0.43L0.244,-0.43C0.228,-0.43 0.222,-0.437 0.222,-0.453L0.222,-0.49C0.222,-0.506 0.228,-0.513 0.244,-0.513L0.511,-0.513C0.527,-0.513 0.533,-0.52 0.533,-0.536L0.533,-0.677C0.533,-0.693 0.527,-0.7 0.511,-0.7L0.072,-0.7C0.056,-0.7 0.05,-0.693 0.05,-0.677L0.05,-0.023C0.05,-0.007 0.056,0 0.072,0L0.511,0C0.527,0 0.533,-0.007 0.533,-0.023L0.533,-0.164C0.533,-0.18 0.527,-0.187 0.511,-0.187L0.244,-0.187C0.228,-0.187 0.222,-0.194 0.222,-0.21L0.222,-0.246C0.222,-0.262 0.228,-0.269 0.244,-0.269L0.461,-0.269Z" style="fill:white;fill-rule:nonzero;"/>
            </g>
            <g transform="matrix(46,0,0,46,85.836,0)">
                <path d="M0.03,-0.215C0.03,-0.068 0.104,0.01 0.242,0.01C0.37,0.01 0.46,-0.068 0.46,-0.217C0.46,-0.354 0.379,-0.424 0.257,-0.436C0.217,-0.44 0.199,-0.452 0.199,-0.482C0.199,-0.506 0.217,-0.522 0.241,-0.522C0.265,-0.522 0.283,-0.507 0.283,-0.477C0.283,-0.461 0.289,-0.454 0.305,-0.454L0.427,-0.454C0.442,-0.454 0.452,-0.459 0.452,-0.486C0.452,-0.627 0.368,-0.71 0.24,-0.71C0.112,-0.71 0.03,-0.632 0.03,-0.483C0.03,-0.336 0.104,-0.278 0.241,-0.262C0.266,-0.259 0.283,-0.247 0.283,-0.217C0.283,-0.193 0.265,-0.177 0.241,-0.177C0.217,-0.177 0.2,-0.19 0.2,-0.225C0.2,-0.241 0.194,-0.248 0.178,-0.248L0.056,-0.248C0.041,-0.248 0.03,-0.244 0.03,-0.215Z" style="fill:white;fill-rule:nonzero;"/>
            </g>
            <g transform="matrix(46,0,0,46,108.008,0)">
                <path d="M0.238,-0.677C0.238,-0.693 0.232,-0.7 0.216,-0.7L0.072,-0.7C0.056,-0.7 0.05,-0.693 0.05,-0.677L0.05,-0.023C0.05,-0.007 0.056,0 0.072,0L0.216,0C0.232,0 0.238,-0.007 0.238,-0.023L0.238,-0.677Z" style="fill:white;fill-rule:nonzero;"/>
            </g>
            <g transform="matrix(46,0,0,46,121.256,0)">
                <path d="M0.028,-0.032C0.019,-0.016 0.022,0 0.043,0L0.581,0C0.594,0 0.599,-0.005 0.599,-0.018L0.599,-0.175C0.599,-0.188 0.594,-0.193 0.581,-0.193L0.358,-0.193C0.337,-0.193 0.332,-0.206 0.343,-0.225L0.592,-0.668C0.602,-0.686 0.597,-0.7 0.578,-0.7L0.04,-0.7C0.027,-0.7 0.022,-0.695 0.022,-0.682L0.022,-0.525C0.022,-0.512 0.027,-0.507 0.04,-0.507L0.263,-0.507C0.284,-0.507 0.289,-0.494 0.278,-0.475L0.028,-0.032Z" style="fill:white;fill-rule:nonzero;"/>
            </g>
            <g transform="matrix(46,0,0,46,149.914,0)">
                <path d="M0.461,-0.269C0.477,-0.269 0.483,-0.276 0.483,-0.292L0.483,-0.407C0.483,-0.423 0.477,-0.43 0.461,-0.43L0.244,-0.43C0.228,-0.43 0.222,-0.437 0.222,-0.453L0.222,-0.49C0.222,-0.506 0.228,-0.513 0.244,-0.513L0.511,-0.513C0.527,-0.513 0.533,-0.52 0.533,-0.536L0.533,-0.677C0.533,-0.693 0.527,-0.7 0.511,-0.7L0.072,-0.7C0.056,-0.7 0.05,-0.693 0.05,-0.677L0.05,-0.023C0.05,-0.007 0.056,0 0.072,0L0.511,0C0.527,0 0.533,-0.007 0.533,-0.023L0.533,-0.164C0.533,-0.18 0.527,-0.187 0.511,-0.187L0.244,-0.187C0.228,-0.187 0.222,-0.194 0.222,-0.21L0.222,-0.246C0.222,-0.262 0.228,-0.269 0.244,-0.269L0.461,-0.269Z" style="fill:white;fill-rule:nonzero;"/>
            </g>
            <g transform="matrix(46,0,0,46,184.092,0)">
                <path d="M0.245,-0.71C0.098,-0.71 0.03,-0.625 0.03,-0.35C0.03,-0.075 0.098,0.01 0.245,0.01C0.392,0.01 0.46,-0.075 0.46,-0.35C0.46,-0.625 0.392,-0.71 0.245,-0.71ZM0.245,-0.191C0.218,-0.191 0.207,-0.213 0.207,-0.35C0.207,-0.487 0.218,-0.509 0.245,-0.509C0.272,-0.509 0.283,-0.487 0.283,-0.35C0.283,-0.213 0.272,-0.191 0.245,-0.191Z" style="fill:white;fill-rule:nonzero;"/>
            </g>
            <g transform="matrix(46,0,0,46,206.632,0)">
                <path d="M0.306,-0.261C0.322,-0.261 0.328,-0.268 0.328,-0.284L0.328,-0.416C0.328,-0.432 0.322,-0.439 0.306,-0.439L0.247,-0.439C0.231,-0.439 0.225,-0.445 0.225,-0.461L0.225,-0.478C0.225,-0.494 0.231,-0.5 0.247,-0.5L0.321,-0.5C0.337,-0.5 0.343,-0.507 0.343,-0.523L0.343,-0.677C0.343,-0.693 0.337,-0.7 0.321,-0.7L0.072,-0.7C0.056,-0.7 0.05,-0.693 0.05,-0.677L0.05,-0.023C0.05,-0.007 0.056,0 0.072,0L0.203,0C0.219,0 0.225,-0.007 0.225,-0.023L0.225,-0.239C0.225,-0.255 0.231,-0.261 0.247,-0.261L0.306,-0.261Z" style="fill:white;fill-rule:nonzero;"/>
            </g>
            <g transform="matrix(46,0,0,46,231.61,0)">
                <path d="M0.61,-0.236C0.61,-0.38 0.491,-0.44 0.337,-0.44L0.301,-0.44C0.234,-0.44 0.217,-0.458 0.217,-0.482C0.217,-0.509 0.251,-0.53 0.315,-0.53C0.368,-0.53 0.424,-0.513 0.466,-0.479C0.48,-0.468 0.49,-0.468 0.501,-0.479L0.593,-0.578C0.609,-0.596 0.597,-0.608 0.583,-0.619C0.515,-0.673 0.428,-0.71 0.328,-0.71C0.163,-0.71 0.038,-0.62 0.038,-0.467C0.038,-0.311 0.164,-0.26 0.32,-0.26L0.349,-0.26C0.41,-0.26 0.431,-0.247 0.431,-0.219C0.431,-0.191 0.399,-0.17 0.337,-0.17C0.266,-0.17 0.203,-0.2 0.166,-0.236C0.153,-0.249 0.145,-0.249 0.132,-0.237L0.031,-0.141C0.019,-0.129 0.023,-0.117 0.034,-0.106C0.104,-0.035 0.203,0.01 0.326,0.01C0.482,0.01 0.61,-0.076 0.61,-0.236Z" style="fill:white;fill-rule:nonzero;"/>
            </g>
            <g transform="matrix(46,0,0,46,260.82,0)">
                <path d="M0.58,-0.023C0.58,-0.007 0.586,0 0.602,0L0.73,0C0.746,0 0.752,-0.007 0.752,-0.023L0.752,-0.677C0.752,-0.693 0.746,-0.7 0.73,-0.7L0.648,-0.7C0.625,-0.7 0.618,-0.693 0.604,-0.673L0.418,-0.435C0.407,-0.421 0.394,-0.422 0.384,-0.435L0.198,-0.673C0.184,-0.693 0.177,-0.7 0.154,-0.7L0.072,-0.7C0.056,-0.7 0.05,-0.693 0.05,-0.677L0.05,-0.023C0.05,-0.007 0.056,0 0.072,0L0.2,0C0.216,0 0.222,-0.007 0.222,-0.023L0.222,-0.314C0.222,-0.332 0.239,-0.332 0.247,-0.321L0.384,-0.148C0.394,-0.135 0.407,-0.135 0.418,-0.148L0.555,-0.321C0.563,-0.332 0.58,-0.33 0.58,-0.314L0.58,-0.023Z" style="fill:white;fill-rule:nonzero;"/>
            </g>
            <g transform="matrix(46,0,0,46,297.712,0)">
                <path d="M0.251,-0.372C0.254,-0.385 0.257,-0.393 0.265,-0.393C0.273,-0.393 0.277,-0.385 0.28,-0.372L0.298,-0.293C0.3,-0.285 0.301,-0.278 0.301,-0.274C0.301,-0.267 0.295,-0.263 0.284,-0.263L0.247,-0.263C0.236,-0.263 0.229,-0.266 0.229,-0.274C0.229,-0.278 0.23,-0.285 0.232,-0.293L0.251,-0.372ZM0.207,-0.088C0.211,-0.106 0.219,-0.11 0.235,-0.11L0.295,-0.11C0.311,-0.11 0.318,-0.106 0.323,-0.088L0.338,-0.027C0.344,-0.003 0.352,0 0.379,0L0.503,0C0.516,0 0.521,-0.006 0.521,-0.016C0.521,-0.02 0.52,-0.023 0.519,-0.028L0.354,-0.677C0.349,-0.695 0.341,-0.7 0.325,-0.7L0.206,-0.7C0.19,-0.7 0.182,-0.695 0.177,-0.677L0.012,-0.028C0.011,-0.023 0.01,-0.02 0.01,-0.016C0.01,-0.006 0.015,0 0.028,0L0.151,0C0.178,0 0.186,-0.003 0.192,-0.027L0.207,-0.088Z" style="fill:white;fill-rule:nonzero;"/>
            </g>
            <g transform="matrix(46,0,0,46,322.138,0)">
                <path d="M0.254,-0.209C0.238,-0.209 0.232,-0.215 0.232,-0.231L0.232,-0.678C0.232,-0.694 0.226,-0.7 0.21,-0.7L0.072,-0.7C0.056,-0.7 0.05,-0.694 0.05,-0.678L0.05,-0.022C0.05,-0.006 0.056,0 0.072,0L0.331,0C0.347,0 0.353,-0.006 0.353,-0.022L0.353,-0.187C0.353,-0.203 0.347,-0.209 0.331,-0.209L0.254,-0.209Z" style="fill:white;fill-rule:nonzero;"/>
            </g>
            <g transform="matrix(46,0,0,46,339.756,0)">
                <path d="M0.232,-0.677C0.232,-0.693 0.226,-0.7 0.21,-0.7L0.072,-0.7C0.056,-0.7 0.05,-0.693 0.05,-0.677L0.05,-0.023C0.05,-0.007 0.056,0 0.072,0L0.511,0C0.527,0 0.533,-0.007 0.533,-0.023L0.533,-0.165C0.533,-0.181 0.527,-0.188 0.511,-0.188L0.254,-0.188C0.238,-0.188 0.232,-0.195 0.232,-0.211L0.232,-0.677Z" style="fill:white;fill-rule:nonzero;"/>
            </g>
        </g>
    </g>
</svg>
