<?xml version="1.0" encoding="UTF-8" standalone="no"?>
<!DOCTYPE svg PUBLIC "-//W3C//DTD SVG 1.1//EN" "http://www.w3.org/Graphics/SVG/1.1/DTD/svg11.dtd">
<svg width="100%" height="100%" viewBox="0 0 350 35" version="1.1" xmlns="http://www.w3.org/2000/svg" xmlns:xlink="http://www.w3.org/1999/xlink" xml:space="preserve" xmlns:serif="http://www.serif.com/" style="fill-rule:evenodd;clip-rule:evenodd;stroke-linejoin:round;stroke-miterlimit:2;">
    <g transform="matrix(1,0,0,1,-463.691,-2920.17)">
        <g id="WHO-S-ON-BOARD" serif:id="WHO’S ON BOARD" transform="matrix(1,0,0,1,638.543,2954.25)">
            <g transform="matrix(48,0,0,48,-175.368,0)">
                <path d="M0.333,-0.254C0.335,-0.267 0.34,-0.273 0.347,-0.273C0.354,-0.273 0.359,-0.267 0.361,-0.254L0.405,-0.02C0.408,-0.006 0.416,0 0.43,0L0.533,0C0.546,0 0.555,-0.005 0.558,-0.021L0.682,-0.672C0.685,-0.688 0.682,-0.7 0.664,-0.7L0.546,-0.7C0.523,-0.7 0.514,-0.698 0.51,-0.673L0.471,-0.446C0.469,-0.432 0.465,-0.427 0.458,-0.427C0.451,-0.427 0.447,-0.432 0.445,-0.446L0.405,-0.673C0.401,-0.694 0.393,-0.7 0.375,-0.7L0.319,-0.7C0.301,-0.7 0.293,-0.694 0.289,-0.673L0.249,-0.446C0.247,-0.432 0.243,-0.427 0.236,-0.427C0.229,-0.427 0.225,-0.432 0.223,-0.446L0.184,-0.673C0.18,-0.698 0.172,-0.7 0.149,-0.7L0.03,-0.7C0.01,-0.7 0.009,-0.686 0.012,-0.672L0.136,-0.021C0.139,-0.005 0.148,0 0.161,0L0.264,0C0.278,0 0.286,-0.006 0.289,-0.02L0.333,-0.254Z" style="fill:rgb(37,38,62);fill-rule:nonzero;"/>
            </g>
            <g transform="matrix(48,0,0,48,-142.056,0)">
                <path d="M0.226,-0.677C0.226,-0.693 0.22,-0.7 0.204,-0.7L0.072,-0.7C0.056,-0.7 0.05,-0.693 0.05,-0.677L0.05,-0.023C0.05,-0.007 0.056,0 0.072,0L0.204,0C0.22,0 0.226,-0.007 0.226,-0.023L0.226,-0.234C0.226,-0.25 0.232,-0.257 0.248,-0.257L0.452,-0.257C0.468,-0.257 0.474,-0.25 0.474,-0.234L0.474,-0.023C0.474,-0.007 0.48,0 0.496,0L0.628,0C0.644,0 0.65,-0.007 0.65,-0.023L0.65,-0.677C0.65,-0.693 0.644,-0.7 0.628,-0.7L0.496,-0.7C0.48,-0.7 0.474,-0.693 0.474,-0.677L0.474,-0.471C0.474,-0.455 0.468,-0.448 0.452,-0.448L0.248,-0.448C0.232,-0.448 0.226,-0.455 0.226,-0.471L0.226,-0.677Z" style="fill:rgb(37,38,62);fill-rule:nonzero;"/>
            </g>
            <g transform="matrix(48,0,0,48,-108.456,0)">
                <path d="M0.245,-0.71C0.098,-0.71 0.03,-0.625 0.03,-0.35C0.03,-0.075 0.098,0.01 0.245,0.01C0.392,0.01 0.46,-0.075 0.46,-0.35C0.46,-0.625 0.392,-0.71 0.245,-0.71ZM0.245,-0.191C0.218,-0.191 0.207,-0.213 0.207,-0.35C0.207,-0.487 0.218,-0.509 0.245,-0.509C0.272,-0.509 0.283,-0.487 0.283,-0.35C0.283,-0.213 0.272,-0.191 0.245,-0.191Z" style="fill:rgb(37,38,62);fill-rule:nonzero;"/>
            </g>
            <g transform="matrix(48,0,0,48,-84.936,0)">
                <path d="M0.173,-0.507C0.185,-0.516 0.193,-0.529 0.193,-0.545L0.193,-0.677C0.193,-0.693 0.187,-0.7 0.171,-0.7L0.053,-0.7C0.037,-0.7 0.031,-0.693 0.031,-0.677L0.031,-0.434C0.031,-0.421 0.038,-0.415 0.046,-0.415C0.051,-0.415 0.056,-0.417 0.061,-0.421L0.173,-0.507Z" style="fill:rgb(37,38,62);fill-rule:nonzero;"/>
            </g>
            <g transform="matrix(48,0,0,48,-74.184,0)">
                <path d="M0.61,-0.236C0.61,-0.38 0.491,-0.44 0.337,-0.44L0.301,-0.44C0.234,-0.44 0.217,-0.458 0.217,-0.482C0.217,-0.509 0.251,-0.53 0.315,-0.53C0.368,-0.53 0.424,-0.513 0.466,-0.479C0.48,-0.468 0.49,-0.468 0.501,-0.479L0.593,-0.578C0.609,-0.596 0.597,-0.608 0.583,-0.619C0.515,-0.673 0.428,-0.71 0.328,-0.71C0.163,-0.71 0.038,-0.62 0.038,-0.467C0.038,-0.311 0.164,-0.26 0.32,-0.26L0.349,-0.26C0.41,-0.26 0.431,-0.247 0.431,-0.219C0.431,-0.191 0.399,-0.17 0.337,-0.17C0.266,-0.17 0.203,-0.2 0.166,-0.236C0.153,-0.249 0.145,-0.249 0.132,-0.237L0.031,-0.141C0.019,-0.129 0.023,-0.117 0.034,-0.106C0.104,-0.035 0.203,0.01 0.326,0.01C0.482,0.01 0.61,-0.076 0.61,-0.236Z" style="fill:rgb(37,38,62);fill-rule:nonzero;"/>
            </g>
            <g transform="matrix(48,0,0,48,-35.544,0)">
                <path d="M0.245,-0.71C0.098,-0.71 0.03,-0.625 0.03,-0.35C0.03,-0.075 0.098,0.01 0.245,0.01C0.392,0.01 0.46,-0.075 0.46,-0.35C0.46,-0.625 0.392,-0.71 0.245,-0.71ZM0.245,-0.191C0.218,-0.191 0.207,-0.213 0.207,-0.35C0.207,-0.487 0.218,-0.509 0.245,-0.509C0.272,-0.509 0.283,-0.487 0.283,-0.35C0.283,-0.213 0.272,-0.191 0.245,-0.191Z" style="fill:rgb(37,38,62);fill-rule:nonzero;"/>
            </g>
            <g transform="matrix(48,0,0,48,-12.024,0)">
                <path d="M0.503,-0.027C0.519,-0.008 0.523,0 0.546,0L0.628,0C0.644,0 0.65,-0.007 0.65,-0.023L0.65,-0.677C0.65,-0.693 0.644,-0.7 0.628,-0.7L0.5,-0.7C0.484,-0.7 0.478,-0.693 0.478,-0.677L0.478,-0.388C0.478,-0.371 0.463,-0.367 0.452,-0.379L0.197,-0.673C0.181,-0.692 0.177,-0.7 0.154,-0.7L0.072,-0.7C0.056,-0.7 0.05,-0.693 0.05,-0.677L0.05,-0.023C0.05,-0.007 0.056,0 0.072,0L0.2,0C0.216,0 0.222,-0.007 0.222,-0.023L0.222,-0.311C0.222,-0.328 0.237,-0.332 0.248,-0.32L0.503,-0.027Z" style="fill:rgb(37,38,62);fill-rule:nonzero;"/>
            </g>
            <g transform="matrix(48,0,0,48,29.736,0)">
                <path d="M0.072,-0.7C0.056,-0.7 0.05,-0.693 0.05,-0.677L0.05,-0.023C0.05,-0.007 0.056,0 0.072,0L0.371,0C0.527,0 0.603,-0.089 0.603,-0.212C0.603,-0.3 0.573,-0.362 0.506,-0.4C0.495,-0.406 0.492,-0.411 0.492,-0.419C0.492,-0.423 0.493,-0.427 0.494,-0.433C0.497,-0.448 0.501,-0.472 0.501,-0.488C0.501,-0.614 0.426,-0.7 0.285,-0.7L0.072,-0.7ZM0.234,-0.425C0.218,-0.425 0.212,-0.432 0.212,-0.448L0.212,-0.496C0.212,-0.512 0.218,-0.519 0.234,-0.519L0.285,-0.519C0.311,-0.519 0.331,-0.502 0.331,-0.472C0.331,-0.441 0.311,-0.425 0.285,-0.425L0.234,-0.425ZM0.234,-0.181C0.218,-0.181 0.212,-0.188 0.212,-0.204L0.212,-0.252C0.212,-0.268 0.218,-0.275 0.234,-0.275L0.368,-0.275C0.407,-0.275 0.429,-0.26 0.429,-0.228C0.429,-0.195 0.407,-0.181 0.368,-0.181L0.234,-0.181Z" style="fill:rgb(37,38,62);fill-rule:nonzero;"/>
            </g>
            <g transform="matrix(48,0,0,48,59.736,0)">
                <path d="M0.362,0.01C0.564,0.01 0.712,-0.142 0.712,-0.351C0.712,-0.56 0.564,-0.71 0.362,-0.71C0.16,-0.71 0.012,-0.559 0.012,-0.35C0.012,-0.141 0.16,0.01 0.362,0.01ZM0.362,-0.52C0.46,-0.52 0.529,-0.444 0.529,-0.35C0.529,-0.256 0.46,-0.18 0.362,-0.18C0.264,-0.18 0.195,-0.257 0.195,-0.351C0.195,-0.445 0.264,-0.52 0.362,-0.52Z" style="fill:rgb(37,38,62);fill-rule:nonzero;"/>
            </g>
            <g transform="matrix(48,0,0,48,94.488,0)">
                <path d="M0.251,-0.372C0.254,-0.385 0.257,-0.393 0.265,-0.393C0.273,-0.393 0.277,-0.385 0.28,-0.372L0.298,-0.293C0.3,-0.285 0.301,-0.278 0.301,-0.274C0.301,-0.267 0.295,-0.263 0.284,-0.263L0.247,-0.263C0.236,-0.263 0.229,-0.266 0.229,-0.274C0.229,-0.278 0.23,-0.285 0.232,-0.293L0.251,-0.372ZM0.207,-0.088C0.211,-0.106 0.219,-0.11 0.235,-0.11L0.295,-0.11C0.311,-0.11 0.318,-0.106 0.323,-0.088L0.338,-0.027C0.344,-0.003 0.352,0 0.379,0L0.503,0C0.516,0 0.521,-0.006 0.521,-0.016C0.521,-0.02 0.52,-0.023 0.519,-0.028L0.354,-0.677C0.349,-0.695 0.341,-0.7 0.325,-0.7L0.206,-0.7C0.19,-0.7 0.182,-0.695 0.177,-0.677L0.012,-0.028C0.011,-0.023 0.01,-0.02 0.01,-0.016C0.01,-0.006 0.015,0 0.028,0L0.151,0C0.178,0 0.186,-0.003 0.192,-0.027L0.207,-0.088Z" style="fill:rgb(37,38,62);fill-rule:nonzero;"/>
            </g>
            <g transform="matrix(48,0,0,48,119.976,0)">
                <path d="M0.408,-0.315C0.406,-0.323 0.407,-0.329 0.412,-0.336C0.434,-0.37 0.456,-0.411 0.456,-0.481C0.456,-0.629 0.364,-0.7 0.215,-0.7L0.072,-0.7C0.056,-0.7 0.05,-0.694 0.05,-0.678L0.05,-0.022C0.05,-0.006 0.056,0 0.072,0L0.201,0C0.217,0 0.223,-0.006 0.223,-0.022L0.223,-0.246C0.223,-0.257 0.23,-0.261 0.236,-0.261C0.242,-0.261 0.248,-0.255 0.25,-0.246L0.307,-0.031C0.313,-0.006 0.319,0 0.344,0L0.471,0C0.492,0 0.493,-0.016 0.489,-0.03L0.408,-0.315ZM0.234,-0.425C0.218,-0.425 0.212,-0.432 0.212,-0.448L0.212,-0.496C0.212,-0.512 0.218,-0.519 0.234,-0.519L0.239,-0.519C0.265,-0.519 0.285,-0.502 0.285,-0.472C0.285,-0.441 0.265,-0.425 0.239,-0.425L0.234,-0.425Z" style="fill:rgb(37,38,62);fill-rule:nonzero;"/>
            </g>
            <g transform="matrix(48,0,0,48,144.072,0)">
                <path d="M0.072,-0.7C0.056,-0.7 0.05,-0.693 0.05,-0.677L0.05,-0.023C0.05,-0.007 0.056,0 0.072,0L0.305,0C0.504,0 0.64,-0.148 0.64,-0.351C0.64,-0.554 0.504,-0.7 0.305,-0.7L0.072,-0.7ZM0.222,-0.49C0.222,-0.506 0.228,-0.513 0.244,-0.513L0.287,-0.513C0.393,-0.513 0.457,-0.45 0.457,-0.35C0.457,-0.25 0.393,-0.187 0.287,-0.187L0.244,-0.187C0.228,-0.187 0.222,-0.194 0.222,-0.21L0.222,-0.49Z" style="fill:rgb(37,38,62);fill-rule:nonzero;"/>
            </g>
        </g>
    </g>
</svg>
